<svg xmlns="http://www.w3.org/2000/svg" width="96" height="96" viewBox="0 0 96 96">
    <g fill="none" fill-rule="evenodd" stroke="#152B45" stroke-width="2.5" transform="translate(26 8)">
        <path d="M32.384 31.342a14.073 14.073 0 0 0 4.138-9.985c0-7.796-6.321-14.117-14.118-14.117-7.797 0-14.118 6.32-14.118 14.117 0 3.882 1.567 7.397 4.102 9.95"/>
        <path d="M19.146 7.24V3.258a3.258 3.258 0 1 1 6.516 0V7.24"/>
        <rect width="6.516" height="11.584" x="19.146" y="48.145" rx="3.258"/>
        <path d="M27 25.51a3.258 3.258 0 0 1 4.105 2.092l13.088 40.28a3.258 3.258 0 0 1-6.197 2.014l-13.088-40.28A3.258 3.258 0 0 1 27 25.511zM18.009 25.51a3.258 3.258 0 0 1 2.092 4.106L7.013 69.896a3.258 3.258 0 1 1-6.197-2.013l13.088-40.28a3.258 3.258 0 0 1 4.105-2.092z"/>
        <path stroke-linecap="round" d="M2.896 72.045L0 79.959M42.353 72.045l2.896 7.914M1.448 53.937h3.691m7.243 0h6.56m6.947 0h6.694m7.316 0h3.45"/>
    </g>
</svg>
