<svg xmlns="http://www.w3.org/2000/svg" width="96" height="96" viewBox="0 0 96 96">
    <g fill="none" fill-rule="evenodd" stroke="#152B45" stroke-linecap="round" stroke-linejoin="round" stroke-width="2.5">
        <path d="M32.765 47.632l5.518-5.518 6.24 6.24 11.12-11.119 5.739 5.739-16.638 16.638z"/>
        <path d="M13 18.412L47.824 9l34.346 9.412c.318 6.274.477 17.568.477 33.882 0 16.314-11.53 28.55-34.588 36.706C24.686 80.843 13 67.98 13 50.412v-32z"/>
        <path d="M22.412 26.218l25.412-6.865 25.063 6.865c.232 4.577.348 12.815.348 24.714 0 11.9-8.413 20.824-25.24 26.774-17.055-5.95-25.583-15.332-25.583-28.147V26.218z"/>
    </g>
</svg>
