<svg xmlns="http://www.w3.org/2000/svg" width="96" height="96" viewBox="0 0 96 96">
    <path fill="#152B45" fill-rule="nonzero" d="M50.521 47.134c.414.034.779.292.94.675.172.41.077.883-.242 1.197l-2.862 2.822a1.119 1.119 0 0 1-.788.322c-.285 0-.57-.108-.787-.322a1.087 1.087 0 0 1 0-1.554l.962-.95a1.112 1.112 0 0 1-.939-.674 1.088 1.088 0 0 1 .242-1.197l2.596-2.56c.435-.43 1.14-.43 1.576 0 .435.43.435 1.125 0 1.554l-.698.687zm20.607-5.373l4.248 20.02c.408 1.923-1.08 3.734-3.078 3.734h-16.92v2.726c0 .607-.499 1.099-1.115 1.099H52.71v9.468h3.701c.616 0 1.115.491 1.115 1.098v3.995c0 .607-.5 1.099-1.115 1.099H41.59a1.106 1.106 0 0 1-1.114-1.099v-3.995c0-.607.498-1.098 1.114-1.098h3.701V69.34h-1.553a1.107 1.107 0 0 1-1.115-1.099v-2.726h-16.92c-1.993 0-3.486-1.807-3.077-3.734l2.293-10.808a1.114 1.114 0 0 1 1.318-.85c.603.124.988.706.863 1.3l-.253 1.19H39.23l1.02-8.506H28.651l-.768 3.618a1.115 1.115 0 0 1-1.318.85 1.1 1.1 0 0 1-.863-1.3l1.17-5.514a22.962 22.962 0 0 1-1.576-8.39C25.296 20.486 35.93 10 49 10c6.248 0 12.146 2.378 16.608 6.697.439.425.445 1.12.014 1.554a1.125 1.125 0 0 1-1.576.014c-4.042-3.913-9.385-6.068-15.046-6.068-11.842 0-21.476 9.499-21.476 21.175 0 1.264.113 2.512.335 3.738l.73-3.438c.302-1.43 1.596-2.466 3.076-2.466h34.67c1.48 0 2.774 1.037 3.077 2.466l.73 3.438c.22-1.226.334-2.474.334-3.738a20.82 20.82 0 0 0-4.094-12.437 1.088 1.088 0 0 1 .246-1.534 1.124 1.124 0 0 1 1.556.242 22.983 22.983 0 0 1 4.52 13.729c0 2.894-.531 5.714-1.576 8.39zm.026 10.853l-1.804-8.507H57.75l1.02 8.507h12.383zM67.23 34.12a.916.916 0 0 0-.896-.718h-9.867l1.02 8.507h11.395l-1.652-7.79zm-13.008-.718H43.777l-1.02 8.507h12.487l-1.02-8.507zM29.117 41.91h11.395l1.02-8.507h-9.867a.916.916 0 0 0-.896.718l-1.652 7.79zm13.376 2.197l-1.02 8.507h15.054l-1.02-8.507H42.493zm11.77 19.211h3.548l-1.02-8.507H41.21l-1.02 8.507h14.073zm-29.457-1.087a.905.905 0 0 0 .896 1.087h12.243l1.02-8.507H26.38l-1.574 7.42zm30.491 20.572v-1.798H42.702v1.798h12.594zm-4.815-3.995V69.34h-2.963v9.468h2.963zm2.667-11.665v-1.628h-8.298v1.628h8.298zm19.15-3.825a.905.905 0 0 0 .895-1.088l-1.574-7.419H59.035l1.02 8.507h12.243zM18.971 13.792a1.09 1.09 0 0 1-.221-1.538 1.124 1.124 0 0 1 1.56-.219l4.948 3.665c.493.364.592 1.053.222 1.538a1.119 1.119 0 0 1-.892.439c-.233 0-.468-.072-.668-.22l-4.949-3.665zm4.258 10.97c0 .606-.499 1.098-1.114 1.098h-6.002A1.107 1.107 0 0 1 15 24.762c0-.607.5-1.099 1.114-1.099h6.002c.615 0 1.114.492 1.114 1.099zm50.18-7.085c-.337 0-.672-.151-.89-.44a1.088 1.088 0 0 1 .221-1.537l4.948-3.665a1.124 1.124 0 0 1 1.56.219c.37.485.27 1.174-.221 1.538l-4.949 3.664c-.2.15-.435.22-.668.22zm8.476 5.986c.615 0 1.114.492 1.114 1.099 0 .606-.499 1.098-1.114 1.098h-6.002a1.106 1.106 0 0 1-1.114-1.098c0-.607.499-1.099 1.114-1.099h6.002z"/>
</svg>
