<svg xmlns="http://www.w3.org/2000/svg" width="96" height="96" viewBox="0 0 96 96">
    <path fill="#152B45" fill-rule="nonzero" d="M62.57 75.365a1.431 1.431 0 0 1 0 2.02l-5.185 5.197a1.424 1.424 0 0 1-2.346-.519l-1.124-3.073-3 3.006a1.423 1.423 0 0 1-2.016 0 1.43 1.43 0 0 1 0-2.02l4.579-4.588a1.423 1.423 0 0 1 2.346.518l1.124 3.074 3.607-3.616a1.423 1.423 0 0 1 2.015 0zm-29.74-51.7c8.927 0 16.19 7.279 16.19 16.224 0 8.946-7.263 16.224-16.19 16.224-8.925 0-16.188-7.278-16.188-16.224 0-8.945 7.263-16.223 16.189-16.223zm0 29.592c7.355 0 13.339-5.997 13.339-13.368 0-7.37-5.984-13.367-13.338-13.367-7.355 0-13.338 5.997-13.338 13.367 0 7.371 5.983 13.368 13.338 13.368zm0-40.257c.788 0 1.426.64 1.426 1.428v5.624c0 .79-.638 1.429-1.425 1.429s-1.425-.64-1.425-1.429v-5.624c0-.789.637-1.428 1.425-1.428zm12.146 64.714c.787 0 1.425.64 1.425 1.428 0 .789-.638 1.428-1.425 1.428h-3.198c-5.72 0-10.372-4.663-10.372-10.395V59.727c0-.79.637-1.429 1.425-1.429.787 0 1.425.64 1.425 1.429v10.448c0 4.157 3.375 7.539 7.523 7.539h3.197zm6.827-56.838a1.43 1.43 0 0 1 0 2.02l-3.968 3.976a1.419 1.419 0 0 1-2.016 0 1.43 1.43 0 0 1 0-2.02l3.968-3.976a1.423 1.423 0 0 1 2.016 0zm-31.96 32.03a1.43 1.43 0 0 1 0 2.02l-3.97 3.977a1.419 1.419 0 0 1-2.016 0 1.43 1.43 0 0 1 .001-2.02l3.969-3.977a1.423 1.423 0 0 1 2.015 0zm38.393-14.445c.788 0 1.425.64 1.426 1.429 0 .788-.638 1.428-1.426 1.428h-5.612c-.787 0-1.425-.64-1.425-1.428 0-.79.638-1.429 1.425-1.429h5.612zm-45.199 0c.787 0 1.425.64 1.425 1.429 0 .788-.638 1.428-1.425 1.428H7.425c-.787 0-1.425-.64-1.425-1.428 0-.79.638-1.429 1.425-1.429h5.612zm6.805-13.608a1.43 1.43 0 0 1-1.007 2.438c-.365 0-.73-.14-1.008-.418l-3.968-3.977a1.43 1.43 0 0 1 0-2.02 1.423 1.423 0 0 1 2.015 0l3.968 3.977zm31.961 32.03a1.43 1.43 0 0 1-1.008 2.439c-.365 0-.73-.14-1.008-.419l-3.968-3.977a1.43 1.43 0 0 1 0-2.02 1.423 1.423 0 0 1 2.016 0l3.968 3.977zm36.772-18.422c.787 0 1.425.64 1.425 1.429s-.638 1.428-1.425 1.428h-1.488v7.055a9.222 9.222 0 0 1-7.768 9.103v12.7c0 5.731-4.653 10.395-10.373 10.395h-3.353c-.788 0-1.425-.64-1.425-1.429 0-.788.637-1.428 1.425-1.428h3.353c4.148 0 7.522-3.382 7.522-7.539v-12.7a9.222 9.222 0 0 1-7.768-9.102v-7.055h-1.488c-.787 0-1.425-.64-1.425-1.428 0-.79.638-1.429 1.425-1.429h4.24v-7.977c0-.789.637-1.428 1.425-1.428.787 0 1.425.64 1.425 1.428v7.977h7.183v-7.977a1.427 1.427 0 0 1 2.85 0v7.977h4.24zm-4.338 9.912v-7.055H71.551v7.055c0 3.505 2.845 6.357 6.343 6.357 3.497 0 6.343-2.852 6.343-6.357zm-9.05.348c-.788 0-1.426-.64-1.426-1.428a1.427 1.427 0 0 1 2.85 0c0 .789-.637 1.428-1.424 1.428zm5.415 0c-.787 0-1.425-.64-1.425-1.428 0-.79.638-1.429 1.425-1.429.788 0 1.426.64 1.426 1.429s-.638 1.428-1.426 1.428z"/>
</svg>
