<svg xmlns="http://www.w3.org/2000/svg" width="96" height="96" viewBox="0 0 96 96">
    <path fill="#152B45" fill-rule="nonzero" d="M82.993 41.868L83 54.095a1.368 1.368 0 0 1-1.366 1.367h-5.925a28.459 28.459 0 0 1-2.83 6.824l4.194 4.194a1.367 1.367 0 0 1 0 1.932l-8.642 8.649a1.366 1.366 0 0 1-1.932 0l-4.197-4.197a28.454 28.454 0 0 1-6.823 2.83v5.94c0 .754-.612 1.366-1.366 1.366H41.887a1.366 1.366 0 0 1-1.366-1.367v-5.94a28.446 28.446 0 0 1-6.823-2.829L29.5 77.061a1.367 1.367 0 0 1-1.933 0l-8.641-8.65a1.367 1.367 0 0 1 0-1.931l4.194-4.194a28.456 28.456 0 0 1-2.83-6.824h-5.925A1.366 1.366 0 0 1 13 54.095l.007-12.227c0-.754.612-1.365 1.366-1.365h5.918a28.458 28.458 0 0 1 2.83-6.824l-4.18-4.18a1.366 1.366 0 0 1 0-1.932l8.649-8.643a1.366 1.366 0 0 1 1.932 0l4.176 4.177a28.445 28.445 0 0 1 6.823-2.83v-5.904c0-.755.611-1.367 1.366-1.367h12.226c.754 0 1.366.612 1.366 1.367v5.904a28.453 28.453 0 0 1 6.822 2.83l4.176-4.177a1.366 1.366 0 0 1 1.932 0l8.648 8.642a1.366 1.366 0 0 1 0 1.933l-4.179 4.18a28.455 28.455 0 0 1 2.83 6.823h5.918c.755 0 1.366.612 1.367 1.366zM74.64 52.73h5.626l-.005-9.493H74.64c-.637 0-1.19-.441-1.332-1.063A25.758 25.758 0 0 0 70 34.195a1.367 1.367 0 0 1 .19-1.693l3.969-3.968-6.715-6.711-3.966 3.966c-.45.45-1.153.53-1.693.191a25.756 25.756 0 0 0-7.977-3.308 1.367 1.367 0 0 1-1.062-1.332v-5.607h-9.493v5.606c0 .638-.44 1.19-1.062 1.333a25.754 25.754 0 0 0-7.977 3.308c-.54.339-1.242.26-1.693-.191l-3.966-3.966-6.714 6.71 3.968 3.969c.45.45.53 1.153.19 1.693a25.76 25.76 0 0 0-3.307 7.978 1.367 1.367 0 0 1-1.333 1.062h-5.62l-.006 9.494h5.626c.638 0 1.19.44 1.332 1.062A25.762 25.762 0 0 0 26 61.77c.34.54.26 1.242-.19 1.693l-3.984 3.983 6.71 6.716 3.986-3.986c.45-.45 1.153-.53 1.693-.19a25.756 25.756 0 0 0 7.977 3.308 1.367 1.367 0 0 1 1.062 1.332v5.641h9.493v-5.641c0-.638.44-1.19 1.062-1.332a25.756 25.756 0 0 0 7.978-3.309 1.366 1.366 0 0 1 1.693.191l3.985 3.986 6.71-6.716-3.983-3.983a1.367 1.367 0 0 1-.19-1.693 25.765 25.765 0 0 0 3.307-7.979 1.367 1.367 0 0 1 1.332-1.062zM62.88 33.102a20.853 20.853 0 0 1 5.976 12.078c.596 4.459-.269 9.07-2.435 12.986a1.366 1.366 0 1 1-2.391-1.323c3.927-7.098 2.66-16.066-3.083-21.808A18.188 18.188 0 0 0 48 29.67c-4.891 0-9.489 1.905-12.947 5.364a18.192 18.192 0 0 0-5.363 12.948c0 4.89 1.905 9.489 5.363 12.947 5.73 5.732 14.685 7.006 21.775 3.1a1.367 1.367 0 0 1 1.318 2.394 21.177 21.177 0 0 1-12.968 2.414 20.852 20.852 0 0 1-12.057-5.975 20.908 20.908 0 0 1-6.163-14.88 20.908 20.908 0 0 1 6.163-14.881A20.903 20.903 0 0 1 48 26.938c5.62 0 10.904 2.19 14.879 6.164zm-.967 27.429c.36 0 .712.145.966.399a1.371 1.371 0 0 1-.966 2.334c-.36 0-.712-.146-.966-.4a1.377 1.377 0 0 1-.4-.967c0-.36.146-.713.4-.967s.607-.4.966-.4zm.708-13.898a1.366 1.366 0 0 1 0 2.733h-1.267a1.366 1.366 0 0 1 0-2.733h1.267zm-29.24-.034h1.266a1.366 1.366 0 0 1 0 2.733H33.38a1.366 1.366 0 0 1 0-2.733zm16.003-11.971a1.366 1.366 0 1 1-2.733 0V33.36a1.366 1.366 0 1 1 2.733 0v1.267zm-2.766 26.71a1.366 1.366 0 1 1 2.732 0v1.266a1.366 1.366 0 1 1-2.732 0v-1.267zm10.72-24.627a1.366 1.366 0 1 1 1.933 1.933l-7.56 7.561A4.119 4.119 0 0 1 48 52.097a4.119 4.119 0 0 1-4.114-4.114c0-.637.145-1.24.404-1.778l-3.684-3.685a1.367 1.367 0 0 1 1.932-1.932l3.684 3.684A4.088 4.088 0 0 1 48 43.868c.636 0 1.239.145 1.777.404l7.56-7.561zM48 49.364c.761 0 1.381-.62 1.381-1.381 0-.762-.62-1.382-1.381-1.382-.762 0-1.382.62-1.382 1.382 0 .761.62 1.381 1.382 1.381z"/>
</svg>
