<svg xmlns="http://www.w3.org/2000/svg" width="34" height="26" viewBox="0 0 34 26">
    <path fill="#FFF" fill-rule="evenodd" d="M33.267.157C33.35.034 33.404 0 33.44 0a.06.06 0 0 1 .042.02c.098.155.195.28.29.372.033.057.016.174-.05.349a8.456 8.456 0 0 1-.638 1.226c-.11.16-.197.218-.267.178a2.96 2.96 0 0 1-.428-.549c-.048-.11-.014-.238.103-.39.289-.336.548-.687.775-1.049zM24.218 4.57c.01-.008.026-.011.046-.011.053 0 .134.023.211.048a7.79 7.79 0 0 1 1.245.561c.174.103.275.181.317.249.06.14.054.304-.013.488-.046.068-.152.052-.322-.047a8.868 8.868 0 0 0-1.242-.657c-.174-.083-.256-.157-.252-.226a.528.528 0 0 0 .011-.392.108.108 0 0 1 0-.013zm6.495 5.398c.037-.19.175-.285.423-.29.593.037 1.186.053 1.767.045.244.016.387.117.437.31.061.47.104.952.13 1.44-.019.207-.159.32-.431.345a27.24 27.24 0 0 1-1.993-.05c-.278-.038-.419-.157-.432-.364.038-.488.07-.968.099-1.436zm-8.21-4.117a.232.232 0 0 1 .036-.003c.128 0 .223.11.295.342.158.624.263 1.261.314 1.904.005.279-.066.453-.22.534-.378.131-.852.227-1.411.284-.236-.004-.365-.139-.392-.412-.007-.652-.059-1.3-.153-1.936-.016-.263.075-.414.28-.462.495-.05.914-.135 1.25-.251zm5.95 1.147c.054-.007.106-.01.154-.01.282 0 .46.11.541.33.14.646.28 1.299.415 1.95.018.281-.156.468-.532.57-.916.175-1.83.318-2.722.427-.375.017-.6-.107-.688-.377a35.168 35.168 0 0 1-.305-1.968c.002-.274.174-.442.525-.512a39.141 39.141 0 0 0 2.612-.41zm1.62-4.13a.516.516 0 0 1 .085-.008c.143 0 .233.076.28.235.09.462.146.933.169 1.407a.429.429 0 0 1-.3.414c-.475.13-1.015.246-1.618.343-.254.02-.394-.065-.426-.262-.014-.475-.05-.95-.104-1.42.003-.198.122-.322.363-.381a14.69 14.69 0 0 0 1.551-.329zm-8.638 10.29a.208.208 0 0 1 .087-.022c.1 0 .178.096.24.295.156.63.257 1.277.297 1.934.003.288-.063.488-.202.61-.347.23-.8.451-1.349.654-.23.056-.367-.05-.404-.316a13.616 13.616 0 0 0-.243-1.96c-.03-.274.063-.46.28-.568.528-.195.961-.406 1.294-.628zm.077-2.402c.034-.268.231-.398.603-.398.895.066 1.82.101 2.754.106.39.03.598.175.637.445-.003.648-.008 1.262-.016 1.839-.042.24-.245.367-.621.39-.9-.005-1.792-.04-2.655-.103-.36-.05-.562-.193-.618-.436a27.449 27.449 0 0 1-.084-1.843zm6.52 1.208c.1-.143.24-.214.422-.214a1.1 1.1 0 0 1 .363.073c.856.375 1.724.718 2.587 1.021.345.15.469.346.377.598-.308.575-.626 1.11-.95 1.602-.171.193-.429.238-.788.137a36.72 36.72 0 0 1-2.493-.983c-.33-.172-.453-.367-.374-.595.272-.512.559-1.06.856-1.64zm-2.115 3.835a.236.236 0 0 1 .048-.005c.116 0 .142.108.08.337a10.103 10.103 0 0 1-.758 1.76c-.144.24-.29.386-.462.463-.386.13-.867.226-1.435.281-.23 0-.298-.107-.21-.331.273-.543.509-1.127.705-1.75.107-.26.284-.412.542-.463.59-.058 1.089-.157 1.49-.292zm7.85-12.648a.483.483 0 0 1 .093-.01c.116 0 .158.064.133.196a6.684 6.684 0 0 1-.437 1.119.707.707 0 0 1-.39.31c-.406.112-.869.213-1.384.298-.213.021-.306-.033-.285-.167.106-.331.195-.693.266-1.081.055-.165.202-.274.45-.33a14.995 14.995 0 0 0 1.555-.335zM6.195 5.314c.123-.052.23-.096.303-.103l.002.016a.509.509 0 0 0-.166.33c-.016.035-.075.102-.399.274-.584.3-1.137.647-1.653 1.035-.19.137-.293.19-.347.175l-.006-.017c.007-.166.09-.33.245-.487.089-.084.239-.2.446-.345a9.549 9.549 0 0 1 1.575-.878zm-.25.562c.184-.091.312-.137.383-.137.022 0 .038.004.049.012.055.113.163.225.328.335.029.037.035.11-.243.314-.527.361-1.026.765-1.493 1.207-.208.182-.37.246-.492.198-.243-.161-.403-.327-.485-.494-.011-.087.087-.213.303-.386a11.628 11.628 0 0 1 1.65-1.05zm-2.03.853c.083-.07.099-.082.133-.107l-.01.018c-.159.16-.245.328-.255.496-.024.088-.13.22-.324.404-.474.431-.909.901-1.297 1.403-.094.117-.21.248-.26.225l-.005-.021a.86.86 0 0 1 .18-.459l.311-.404c.71-.82.739-.85 1.262-1.327l.264-.228zm-.443.876c.15-.13.257-.194.323-.194.02 0 .037.006.05.019.08.169.241.338.488.503.085.089.047.23-.118.434-.428.481-.821.996-1.173 1.54-.16.217-.315.296-.459.234-.307-.206-.508-.417-.61-.628-.023-.109.043-.27.205-.495.388-.505.821-.978 1.294-1.413zM1.375 9.777c.16-.261.37-.608.546-.87a.827.827 0 0 0-.145.41c-.019.114-.096.285-.23.508a10.357 10.357 0 0 0-.852 1.695c-.064.157-.107.246-.147.274l-.01-.031a.854.854 0 0 1 .045-.227l.044-.124c.426-1.05.434-1.07.749-1.635zm.189.128c.108-.162.187-.241.243-.241a.06.06 0 0 1 .047.024c.102.214.306.428.617.636.12.113.125.285.015.528a12.262 12.262 0 0 0-.772 1.785c-.103.247-.235.335-.393.263-.351-.236-.581-.477-.697-.719-.036-.123-.008-.305.088-.573.231-.593.517-1.162.852-1.703zm-1.405 3.26c.09-.408.217-.945.335-1.358a.823.823 0 0 0-.024.154c-.009.1-.037.28-.116.583a9.947 9.947 0 0 0-.324 1.908 4.79 4.79 0 0 1-.027.295H0c.032-.476.092-1.11.16-1.581zm.214-.53c.056-.187.106-.281.147-.281.014 0 .026.01.038.03.117.243.348.486.701.722.146.129.194.322.148.591a11.438 11.438 0 0 0-.293 1.942c-.034.263-.132.358-.29.282-.368-.246-.61-.5-.731-.753-.046-.128-.059-.32-.043-.621a9.962 9.962 0 0 1 .323-1.911zm6.152-6.189c.182-.118.33-.178.441-.178a.27.27 0 0 1 .062.007c.222.101.487.193.785.274.105.049.086.156-.059.327-.387.412-.754.866-1.097 1.353-.164.202-.339.286-.537.258a7.488 7.488 0 0 1-1.16-.404c-.116-.083-.086-.219.095-.414.46-.447.951-.856 1.47-1.223zm1.355.46c.156-.155.303-.23.45-.23h.03c.334.068.695.123 1.075.167.15.035.19.14.13.323-.194.443-.378.926-.548 1.44-.096.216-.26.319-.502.315a18.776 18.776 0 0 1-1.587-.245c-.191-.063-.227-.197-.107-.41.33-.489.685-.945 1.059-1.36zm1.839.274c.09-.18.218-.27.39-.276.4.028.811.044 1.227.045.173.02.272.118.302.302.03.452.057.943.083 1.465-.015.222-.146.34-.401.363a26.782 26.782 0 0 1-1.81-.067c-.238-.04-.334-.167-.292-.387.156-.516.324-1 .5-1.445zm3.573-.331h.004c.179 0 .324.085.445.258.255.438.495.914.72 1.423.07.22-.013.35-.254.4-.596.066-1.208.11-1.823.131-.258-.013-.404-.127-.447-.348a62.76 62.76 0 0 0-.133-1.465c-.001-.184.082-.286.252-.31.417-.015.831-.045 1.236-.09zm1.679-.305a.364.364 0 0 1 .044-.002c.131 0 .28.07.452.211.44.4.855.84 1.244 1.316.147.207.138.341-.025.412-.432.119-.926.225-1.477.314a.547.547 0 0 1-.544-.292c-.24-.507-.496-.982-.768-1.417-.094-.18-.07-.287.073-.329.373-.06.708-.132 1.001-.213zm1.44-.964a.115.115 0 0 1 .021-.002c.099 0 .282.086.364.125.582.286 1.134.62 1.648.996.217.166.334.289.357.375 0 .166-.074.33-.221.49-.082.047-.226-.014-.44-.188a12.17 12.17 0 0 0-1.577-1.154c-.3-.193-.32-.263-.31-.3.1-.107.151-.218.15-.33l.008-.012zM4.313 8.435c.15-.155.289-.23.419-.231a.33.33 0 0 1 .091.013c.333.153.73.291 1.178.413.172.072.202.213.092.431a15.389 15.389 0 0 0-.863 1.652c-.133.238-.316.335-.561.297a9.484 9.484 0 0 1-1.47-.515c-.156-.104-.17-.27-.04-.51a12.82 12.82 0 0 1 1.154-1.55zm1.963.67c.133-.192.292-.285.487-.285l.06.003c.5.102 1.044.186 1.614.251.232.05.325.184.285.41a25.966 25.966 0 0 0-.434 1.722c-.085.25-.274.367-.578.359a23.934 23.934 0 0 1-2.015-.313c-.25-.079-.332-.238-.252-.489.25-.579.528-1.133.833-1.659zm2.67.4c.085-.222.25-.332.506-.337a27.17 27.17 0 0 0 1.842.07c.262.023.406.145.443.372.021.555.04 1.138.058 1.742-.025.255-.196.392-.52.416a34.141 34.141 0 0 1-2.3-.086c-.305-.048-.445-.196-.426-.452.12-.598.252-1.175.397-1.724zm5.294-.416h.02c.253 0 .427.103.534.316.205.543.392 1.115.56 1.708.038.255-.093.409-.404.47-.76.083-1.539.137-2.321.165-.327-.015-.508-.146-.553-.4a107.69 107.69 0 0 0-.098-1.741c.011-.228.143-.354.402-.386a24.985 24.985 0 0 0 1.86-.132zm2.533-.456a.498.498 0 0 1 .075-.006c.168 0 .32.088.464.266.355.512.68 1.055.97 1.624.1.248.044.41-.172.497-.552.151-1.182.285-1.883.398-.304.02-.502-.088-.608-.334a19.883 19.883 0 0 0-.596-1.703c-.065-.226.014-.364.24-.423.563-.09 1.067-.198 1.51-.32zm1.61-.66a.196.196 0 0 1 .073-.013c.104 0 .23.073.385.222.446.47.855.974 1.22 1.508.144.234.162.398.057.501-.292.193-.67.376-1.13.545-.207.046-.379-.044-.524-.277a14.055 14.055 0 0 0-.996-1.616c-.134-.214-.13-.356.008-.433.369-.136.672-.282.906-.437zm-15.77 2.963c.112-.183.232-.271.37-.271.037 0 .074.006.113.018.42.194.922.369 1.488.522.227.089.305.255.237.508a16.767 16.767 0 0 0-.567 1.86c-.093.26-.27.365-.545.32a10.775 10.775 0 0 1-1.68-.589c-.185-.117-.243-.305-.175-.576.206-.618.46-1.217.759-1.792zm2.435.83c.102-.215.263-.321.49-.321a.85.85 0 0 1 .085.004c.633.129 1.318.235 2.04.318.297.06.434.214.419.472-.113.62-.208 1.256-.286 1.904-.068.27-.267.395-.612.384a27.14 27.14 0 0 1-2.303-.358c-.29-.088-.414-.264-.381-.54.149-.635.333-1.26.548-1.862zm3.313.499c.075-.253.266-.377.583-.38.758.055 1.54.085 2.33.088.329.027.51.165.549.421.015.625.027 1.267.037 1.918-.033.275-.23.422-.602.448a39.264 39.264 0 0 1-2.627-.099c-.352-.053-.526-.214-.532-.49.071-.648.16-1.286.262-1.906zm9.835-1.056a.633.633 0 0 1 .103-.009c.19 0 .333.098.442.304.25.594.463 1.21.635 1.84.046.275-.054.455-.306.553-.63.173-1.35.327-2.153.455-.342.026-.547-.09-.627-.358a23.52 23.52 0 0 0-.39-1.892c-.03-.257.096-.417.388-.49.71-.115 1.348-.25 1.908-.403zM1.553 13.79c.064-.202.16-.3.299-.3.037 0 .077.008.12.022.478.22 1.048.418 1.69.593.265.1.384.282.366.555a15.98 15.98 0 0 0-.215 1.97c-.042.27-.2.38-.481.332a11.348 11.348 0 0 1-1.761-.618c-.202-.122-.302-.322-.305-.61.04-.658.138-1.309.287-1.944zm2.733.931c.067-.233.213-.344.455-.344.033 0 .068.002.105.006a27.44 27.44 0 0 0 2.318.36c.34.066.511.232.523.507a32.952 32.952 0 0 0-.11 1.987c-.043.275-.238.403-.596.391a28.592 28.592 0 0 1-2.415-.376c-.309-.091-.469-.274-.488-.56.03-.662.1-1.321.208-1.971zm11.175.044h.05c.337 0 .531.123.594.376.07.657.116 1.32.134 1.984-.032.284-.23.456-.61.526-.91.099-1.844.164-2.781.196-.39-.015-.6-.158-.64-.436-.003-.665-.01-1.332-.021-1.992.033-.273.231-.425.605-.466.9-.03 1.796-.093 2.67-.188zm-15.415.643a.69.69 0 0 1 .023-.007l.016.025c.118.255.355.507.72.755.157.133.25.34.278.615.028.653.113 1.283.252 1.886.042.237-.01.32-.156.244-.351-.238-.58-.482-.694-.727a3.078 3.078 0 0 1-.137-.443l-.022-.084a9.838 9.838 0 0 1-.293-1.969c-.005-.173-.003-.237.013-.295zm.49 2.98a.533.533 0 0 1-.006-.022.81.81 0 0 0 .016.032c.114.244.342.486.691.723.16.127.289.313.384.554.197.569.445 1.108.737 1.611.07.13.083.176.065.218-.029.01-.04.005-.088-.023a1.94 1.94 0 0 1-.536-.505l-.134-.205c-.556-.958-.578-.996-.832-1.591l-.298-.793zm2.22 3.824c-.244-.294-.56-.684-.794-1 .112.145.272.29.482.432.148.11.3.266.453.462.341.463.725.887 1.145 1.27.105.096.139.13.157.16a.137.137 0 0 1-.047-.02c-.06-.041-.114-.082-.163-.122-.793-.7-.824-.728-1.233-1.182zm2.25 1.92l-.217-.151a29.177 29.177 0 0 0-.602-.428 7.8 7.8 0 0 0 .818.579zm.483.304l-.484-.304c.158.107.32.208.484.304zm-4.253-7.543c.007-.208.07-.31.196-.31.034 0 .072.008.116.023.495.23 1.086.437 1.753.62.282.104.437.29.474.567.02.65.084 1.271.187 1.86.015.236-.107.328-.374.28a10.833 10.833 0 0 1-1.69-.598c-.202-.118-.333-.296-.412-.56a10.43 10.43 0 0 1-.25-1.882zm2.8.962c.02-.232.147-.346.386-.346a.97.97 0 0 1 .106.007c.747.153 1.558.28 2.412.378.357.068.55.235.59.51.01.648.041 1.263.093 1.843-.015.236-.188.344-.529.33a27.22 27.22 0 0 1-2.324-.365c-.301-.086-.483-.249-.554-.5a13.745 13.745 0 0 1-.18-1.857zm15.378-.61a.7.7 0 0 1 .12-.011c.196 0 .294.108.309.333-.026.65-.1 1.273-.218 1.864-.075.254-.242.424-.51.52-.64.174-1.37.328-2.183.458-.34.029-.508-.071-.513-.308.073-.581.118-1.199.134-1.847.044-.275.238-.45.596-.534a21.774 21.774 0 0 0 2.265-.475zm-17.645 2.52c-.048-.175-.026-.26.072-.26.03 0 .067.007.111.023.474.22 1.041.42 1.68.594.276.097.453.26.54.495a9.75 9.75 0 0 0 .545 1.54c.064.19-.016.26-.246.215a9.57 9.57 0 0 1-1.496-.53 1.311 1.311 0 0 1-.478-.472 9.217 9.217 0 0 1-.728-1.605zm2.65.91c-.024-.19.064-.283.271-.283a.95.95 0 0 1 .117.008c.716.147 1.493.268 2.311.362.345.063.545.204.61.433.072.538.164 1.038.272 1.495.014.185-.126.268-.425.252a24.063 24.063 0 0 1-2.057-.323c-.273-.073-.46-.207-.573-.408a9.913 9.913 0 0 1-.526-1.535zm3.614.549c.007-.22.178-.325.52-.325h.016c.858.062 1.745.096 2.64.101.373.025.571.145.605.368-.011.535-.025 1.03-.04 1.483-.04.186-.223.285-.556.303a35.03 35.03 0 0 1-2.35-.091c-.321-.042-.513-.156-.586-.346a16.746 16.746 0 0 1-.25-1.493zm7.398-.434l.074-.001c.31 0 .458.1.455.305-.096.54-.216 1.043-.357 1.504-.091.194-.296.314-.625.369-.777.084-1.575.14-2.376.166-.33-.007-.503-.1-.526-.287.024-.452.047-.948.064-1.482.045-.225.248-.35.623-.386.9-.031 1.796-.093 2.668-.188zm5.958-1.592a.164.164 0 0 1 .071-.023c.068 0 .058.098.034.19l-.025.076a9.326 9.326 0 0 1-.778 1.63c-.143.224-.272.376-.407.477-.3.198-.69.385-1.164.557-.19.052-.241-.016-.159-.208a9.28 9.28 0 0 0 .635-1.561.9.9 0 0 1 .486-.513c.531-.194.969-.404 1.307-.625zM3.027 22.185c-.111-.166-.093-.21-.043-.21.012 0 .026.002.04.006.016.005.036.015.052.02.417.195.915.37 1.478.523.248.083.43.214.56.4.252.43.535.817.846 1.158.126.158.027.165-.044.155-.017-.002-.04-.008-.058-.012a7.604 7.604 0 0 1-1.193-.422 2.562 2.562 0 0 1-.507-.36 8.54 8.54 0 0 1-1.13-1.258zm2.302.79c-.064-.144-.016-.215.145-.215.033 0 .071.003.114.009a23.9 23.9 0 0 0 2.033.318c.306.053.495.164.579.339.126.408.268.773.424 1.088.039.126-.056.18-.29.166a19.259 19.259 0 0 1-1.641-.258 1.158 1.158 0 0 1-.548-.297 6.796 6.796 0 0 1-.816-1.15zm3.135.475c-.017-.164.116-.244.407-.244h.027c.754.056 1.534.086 2.321.09.33.02.501.111.527.28-.018.403-.038.76-.06 1.068-.036.126-.182.193-.449.205a27.86 27.86 0 0 1-1.873-.073c-.26-.03-.427-.11-.511-.24a7.89 7.89 0 0 1-.389-1.086zm6.47-.338c.029-.002.056-.002.082-.002.254 0 .362.075.328.229a6.76 6.76 0 0 1-.55 1.1c-.109.134-.292.22-.559.26-.62.068-1.256.112-1.894.133-.262-.003-.397-.065-.41-.19.036-.31.069-.667.098-1.07.045-.17.228-.267.558-.295a31.88 31.88 0 0 0 2.347-.165zm3.202-.571a.61.61 0 0 1 .116-.014c.122 0 .142.069.064.211a7.407 7.407 0 0 1-.955 1.183c-.163.148-.34.252-.542.317-.452.123-.967.232-1.54.324-.232.024-.315-.026-.252-.153.215-.323.411-.693.586-1.106.104-.178.305-.297.613-.362.711-.113 1.35-.249 1.91-.4zm2.039-.83a.26.26 0 0 1 .058-.026c.013.036.017.049-.107.218-.359.471-.761.905-1.202 1.297-.19.166-.34.287-.46.369a4.59 4.59 0 0 1-.927.444c-.047.014-.158.047-.09-.057.018-.028.05-.06.073-.085.359-.353.688-.752.98-1.19.143-.191.314-.329.526-.42.467-.17.852-.356 1.149-.55zM4.739 23.912c0-.005.003-.011.004-.016a.473.473 0 0 1 .062.022c.33.154.724.292 1.168.413.2.063.375.156.538.284.34.288.705.526 1.09.713.08.04.098.05.123.069a.21.21 0 0 1-.069-.006 5.717 5.717 0 0 1-.572-.185c-.741-.313-.802-.339-1.262-.584a8.25 8.25 0 0 1-.926-.58.959.959 0 0 1-.156-.13zm1.936.602h.014c.032 0 .071.006.1.01.498.102 1.039.187 1.607.252.244.04.409.113.506.228.17.26.354.469.548.624.022.022.069.067-.042.073a.678.678 0 0 1-.092-.004 12.85 12.85 0 0 1-1.101-.173 2.442 2.442 0 0 1-.485-.166 4.947 4.947 0 0 1-1.053-.704c-.039-.039-.132-.13-.002-.14zm2.432.508c-.04-.101.044-.151.255-.151h.042c.597.044 1.213.068 1.835.07.26.013.394.071.41.18a7.369 7.369 0 0 1-.075.597c-.029.058-.127.087-.31.092a18.577 18.577 0 0 1-1.257-.049c-.183-.018-.31-.056-.399-.118a2.552 2.552 0 0 1-.501-.62zm5.067-.226l.086-.003c.178 0 .236.047.176.143-.22.265-.456.48-.707.64a1.287 1.287 0 0 1-.453.134c-.416.045-.843.075-1.271.09-.178 0-.26-.027-.261-.084.044-.146.085-.347.124-.599.042-.108.19-.171.451-.191a24.99 24.99 0 0 0 1.855-.13zm2.53-.452a.514.514 0 0 1 .092-.015.05.05 0 0 1 .043.02c-.006.04-.022.056-.1.122a6.115 6.115 0 0 1-1.229.745 3.972 3.972 0 0 1-.5.184c-.303.083-.65.156-1.034.217-.08.01-.1.012-.133 0v-.023a.404.404 0 0 1 .048-.04c.267-.162.52-.38.754-.646.124-.117.304-.198.55-.247a14.46 14.46 0 0 0 1.509-.317zm1.61-.655l.026-.016a.283.283 0 0 1-.023.023c-.266.186-.617.44-.896.609-.556.319-1.036.595-1.847.913l-.082.031-.043.015c.04-.023.04-.023.171-.083a6.41 6.41 0 0 0 1.26-.755c.185-.135.357-.234.527-.303.369-.135.673-.28.908-.434zM8.229 25.56a.039.039 0 0 1 .018-.005.44.44 0 0 1 .062.01c.329.068.686.124 1.061.168.157.021.287.054.399.1.12.055.243.09.37.106a11.66 11.66 0 0 1-1.14-.172l-.336-.073a4.287 4.287 0 0 1-.307-.084.561.561 0 0 1-.127-.05zm1.642.252c.02-.013.046-.018.1-.018.018 0 .04 0 .067.002.394.029.802.045 1.214.048.116.003.256.018.264.065-.018.06-.037.09-.056.09l-.204.001c-.307-.006-.307-.006-.504-.014a29.008 29.008 0 0 1-.48-.034 1.074 1.074 0 0 1-.373-.107.123.123 0 0 1-.03-.023l.002-.01zm3.325-.063c.038-.003.066-.005.088-.005.036 0 .052.005.061.014-.008.015-.015.019-.054.036a1.997 1.997 0 0 1-.45.112c-.163.019-.38.042-.543.056-.357.025-.357.025-.535.031l-.204.006c.033-.002.065-.032.096-.092.037-.038.143-.063.313-.073.413-.014.826-.042 1.228-.085zM8.108 4.515a6.352 6.352 0 0 1 1.445-.194c.066 0 .137.002.189.013a2.039 2.039 0 0 0-.246.126c-.028.01-.055.02-.471.069a9.848 9.848 0 0 0-1.818.384c-.225.07-.266.078-.304.08a.418.418 0 0 1 .009-.015c.152-.097.35-.19.588-.276a8.866 8.866 0 0 1 .608-.187zm4.154-.195c.133-.018.226-.024.29-.024.046 0 .077.003.098.007.105.029.198.062.276.099-.018.013-.023.017-.368.025-.36.007-.726.034-1.097.083a.096.096 0 0 0-.023-.009c.278-.082.553-.142.824-.181zm-.44-.073a.62.62 0 0 1 .231-.052h.023c.134.017.262.037.38.061l.01.004c-.005.014-.065.025-.235.053a5.527 5.527 0 0 0-.796.188.207.207 0 0 0-.034-.005c.143-.105.283-.188.42-.249zm-.507-.022c-.005-.04.008-.066.084-.07.148 0 .295.007.436.018.023.003.026.005.03.013-.006.017-.02.027-.08.057a2.076 2.076 0 0 0-.387.253.317.317 0 0 0-.038-.002 3.224 3.224 0 0 0-.045-.27zm-.616-.037c.145-.015.294-.025.442-.03.088.002.116.034.133.067.028.068.055.157.083.269-.013 0-.026 0-.039.002a2.92 2.92 0 0 0-.518-.239c-.111-.038-.123-.047-.125-.06a.082.082 0 0 1 .024-.009zm-.244.032a.463.463 0 0 1 .04-.002c.111 0 .225.033.266.044.182.057.367.135.554.235a.268.268 0 0 0-.032.006 7.065 7.065 0 0 0-.912-.16c-.202-.022-.268-.03-.286-.044l.008-.005c.107-.028.227-.053.362-.074zm-.53.127a.7.7 0 0 1 .144-.01c.065 0 .155.003.276.014.308.03.62.08.936.153a.067.067 0 0 0-.02.009 10.88 10.88 0 0 0-1.152-.052c-.285.003-.356.003-.404-.006a.843.843 0 0 1 .22-.108zm.17.125l.182-.002c.324 0 .652.014.984.044-.004.003-.006.007-.005.01a12.1 12.1 0 0 0-1.224.075c-.327.036-.441.046-.469.034a.183.183 0 0 1 .06-.118c.024-.01.118-.034.473-.043zm-.06.138c.4-.048.809-.077 1.221-.085 0 .004.004.007.01.01-.373.048-.742.116-1.105.203-.266.063-.411.094-.465.084a.324.324 0 0 1-.117-.12c.011-.011.078-.044.456-.092zm2.785-.33c.058-.01.104-.014.216-.015.403 0 .794.05 1.17.145l.285.075c.186.056.434.129.618.19.163.054.31.113.442.175.007.003.015.008.022.01-.042.001-.044.001-.259-.063a8.83 8.83 0 0 0-1.727-.334c-.401-.038-.434-.048-.465-.057a1.958 1.958 0 0 0-.311-.112l.009-.014zm-.603-.15a1.28 1.28 0 0 1 .322-.01 11.29 11.29 0 0 1 1.152.173l.202.045c-.296-.06-.601-.089-.914-.087a3.02 3.02 0 0 1-.386-.009 4.959 4.959 0 0 0-.429-.068.144.144 0 0 1-.027-.008l.002-.012c.021-.014.035-.017.078-.025zm1.832.242a4.6 4.6 0 0 0-.156-.034l.156.034zm-2.804-.311h.188c.31.005.31.005.504.015.142.008.328.02.474.032a1.081 1.081 0 0 0-.265.015c-.17.027-.221.026-.251.025a7.197 7.197 0 0 0-.492-.02c-.093-.005-.125-.035-.13-.041-.01-.018-.02-.026-.028-.026zm-.1.001c.018 0 .035.009.052.026 0 .002.017.036-.083.043a6.686 6.686 0 0 0-.498.034 1.72 1.72 0 0 1-.304-.017 1.94 1.94 0 0 0-.384-.002c.147-.016.326-.035.463-.048.358-.024.358-.024.535-.03l.219-.006zm-1.28.09l.063-.006c-.021.001-.042.004-.062.006zm-.133.018a2.218 2.218 0 0 1 .508-.012c.101.011.11.02.124.034l-.023.009a3.96 3.96 0 0 0-.407.084c-.045.008-.084.013-.42.022-.419.01-.826.064-1.219.157.494-.133.857-.21 1.437-.294zm-.731.378c.06-.007.219-.024.328-.024.028 0 .054.001.073.004a.24.24 0 0 0-.064.138c-.042.02-.073.035-.456.118a11.8 11.8 0 0 0-1.929.584c-.269.103-.36.12-.412.112-.004-.118.05-.224.152-.328.05-.038.172-.105.471-.205a10.102 10.102 0 0 1 1.837-.4zm-.115.256a2.753 2.753 0 0 1 .456-.064c.035.05.08.095.145.139-.017.024-.033.046-.364.165-.602.21-1.185.475-1.742.786-.155.081-.375.186-.492.147-.158-.105-.262-.213-.314-.321.003-.059.134-.143.386-.252a11.85 11.85 0 0 1 1.925-.6zM7.34 4.758l.035-.012-.212.08a4.49 4.49 0 0 1 .177-.068zm-.35.134l.173-.066c-.17.07-.316.144-.436.22-.05.03-.135.074-.48.226-.491.215-.959.468-1.4.758.11-.075.22-.15.318-.21.51-.3 1.037-.61 1.825-.928zM4.688 6.138c.053-.037.106-.072.16-.108-.122.083-.243.169-.348.24.06-.044.095-.069.188-.132zm5.48-1.387c.36-.091.728-.163 1.1-.215a.107.107 0 0 0 .024.01 6.59 6.59 0 0 0-.82.311c-.185.084-.314.135-.385.132a1.84 1.84 0 0 1-.282-.098l-.003-.008c.058-.05.266-.105.366-.132zm.334.114c.26-.126.525-.233.793-.32.01.003.021.005.033.006a3.372 3.372 0 0 0-.409.378c-.075.079-.165.16-.248.166a4.79 4.79 0 0 1-.387-.06.286.286 0 0 0-.01-.007c.006-.051.157-.127.228-.163zm.455.067c.124-.146.248-.274.374-.38h.039c.02.114.042.247.062.398.007.071.006.168-.077.184a6.7 6.7 0 0 1-.442-.017c-.08-.025.013-.145.044-.185zm.416-.38c.013 0 .026 0 .039-.002.182.102.363.224.54.365.122.102.158.163.106.182a5.893 5.893 0 0 1-.444.032c-.086-.012-.12-.102-.14-.18a5.551 5.551 0 0 0-.1-.397zm.042-.003a.218.218 0 0 0 .031-.006c.316.075.627.17.933.284.086.033.263.102.29.154l-.007.007c-.105.03-.226.055-.36.076-.086-.002-.2-.076-.31-.155-.19-.139-.382-.26-.577-.36zm.033-.007a.058.058 0 0 0 .019-.01 11.2 11.2 0 0 1 1.171.174c.106.023.327.07.405.117a.757.757 0 0 1-.214.112c-.064.005-.198-.038-.423-.117a8.175 8.175 0 0 0-.958-.276zm.024-.02l.173-.001c.36 0 .714.015 1.063.046.376.037.453.067.47.078 0 .04-.019.08-.054.12-.044.01-.181-.014-.474-.07-.388-.074-.782-.129-1.182-.163.004-.003.006-.007.004-.01zm-.01-.012c.428-.056.85-.083 1.265-.083h.011c.114.003.239.009.295.028.062.04.103.08.125.12-.043.009-.057.013-.452-.019a12.014 12.014 0 0 0-1.234-.035c0-.004-.004-.007-.01-.01zm-2.317.557c.277-.096.397-.112.446-.112h.02c.09.042.197.079.317.112a.196.196 0 0 1 .008.021c-.035.046-.092.09-.227.176-.443.269-.87.589-1.28.953-.118.098-.297.225-.475.204a4.853 4.853 0 0 1-.754-.263c-.067-.056.01-.154.23-.29a11.033 11.033 0 0 1 1.715-.801zm.621.21c.228-.137.337-.159.383-.159h.001c.135.028.281.05.434.068.02.006.077.026-.044.21-.221.305-.435.66-.638 1.057-.066.107-.176.25-.39.25-.365-.04-.712-.094-1.033-.159-.119-.044-.102-.143.053-.303a8.68 8.68 0 0 1 1.234-.964zm.844.126c.06-.083.153-.184.248-.192.16.01.327.017.496.018.069.012.115.082.137.206.033.316.066.68.097 1.086-.003.174-.085.267-.252.285a17.577 17.577 0 0 1-1.176-.043c-.154-.03-.197-.127-.133-.299.186-.399.381-.755.583-1.061zm1.035-.18c.168-.005.336-.017.5-.035.056.003.156.037.31.182.291.297.572.644.842 1.035.098.169.072.269-.082.305-.388.043-.786.07-1.186.085-.17-.012-.27-.103-.306-.276-.05-.406-.102-.77-.156-1.085-.013-.125.012-.196.078-.21zm1.178-.158h.007c.041 0 .154.016.417.143.502.253.988.559 1.453.91.186.152.228.25.128.3a9.139 9.139 0 0 1-.96.204c-.162.006-.307-.07-.444-.234a7.887 7.887 0 0 0-.897-1.028c-.177-.179-.127-.2-.108-.209.15-.025.286-.054.404-.086zm.43-.178a.16.16 0 0 1 .023-.001c.047 0 .165.013.45.097.631.194 1.241.442 1.824.736.237.128.337.22.3.277-.149.099-.341.192-.576.279-.154.027-.352-.093-.488-.185a9.798 9.798 0 0 0-1.49-.898c-.229-.114-.275-.154-.29-.179.104-.045.185-.084.247-.126zm.15-.207c.01-.002.025-.005.055-.005.057 0 .167.01.399.05.665.126 1.308.307 1.924.539.253.1.395.18.423.239a.468.468 0 0 1-.144.317c-.064.03-.209-.011-.469-.135-.59-.29-1.205-.533-1.842-.721-.333-.102-.376-.126-.403-.142.036-.052.057-.097.057-.142zm-.162-.214c.012-.009.02-.014.096-.014.026 0 .061 0 .107.002a8.85 8.85 0 0 1 2.039.398c.148.054.25.094.336.142.165.105.275.213.334.32l-.018.017c-.068-.006-.137-.023-.364-.104a11.424 11.424 0 0 0-1.92-.522c-.394-.073-.447-.09-.47-.104a.39.39 0 0 0-.14-.135z"/>
</svg>
